<?xml version="1.0" encoding="UTF-8" standalone="no"?>
<svg
   xmlns:dc="http://purl.org/dc/elements/1.1/"
   xmlns:cc="http://creativecommons.org/ns#"
   xmlns:rdf="http://www.w3.org/1999/02/22-rdf-syntax-ns#"
   xmlns:svg="http://www.w3.org/2000/svg"
   xmlns="http://www.w3.org/2000/svg"
   xmlns:sodipodi="http://sodipodi.sourceforge.net/DTD/sodipodi-0.dtd"
   xmlns:inkscape="http://www.inkscape.org/namespaces/inkscape"
   viewBox="0 0 793.70667 793.70667"
   height="793.70667"
   width="793.70667"
   xml:space="preserve"
   id="svg2"
   version="1.1"
   sodipodi:docname="06.svg"
   inkscape:version="0.92.3 (2405546, 2018-03-11)"><sodipodi:namedview
     pagecolor="#ffffff"
     bordercolor="#666666"
     borderopacity="1"
     objecttolerance="10"
     gridtolerance="10"
     guidetolerance="10"
     inkscape:pageopacity="0"
     inkscape:pageshadow="2"
     inkscape:window-width="1920"
     inkscape:window-height="986"
     id="namedview68"
     showgrid="false"
     inkscape:zoom="0.96086216"
     inkscape:cx="397.03799"
     inkscape:cy="396.66738"
     inkscape:window-x="-11"
     inkscape:window-y="-11"
     inkscape:window-maximized="1"
     inkscape:current-layer="svg2" /><metadata
     id="metadata8"><rdf:RDF><cc:Work
         rdf:about=""><dc:format>image/svg+xml</dc:format><dc:type
           rdf:resource="http://purl.org/dc/dcmitype/StillImage" /><dc:title></dc:title></cc:Work></rdf:RDF></metadata><defs
     id="defs6" /><g
     transform="matrix(1.3333333,0,0,-1.3333333,0,793.70667)"
     id="g10"><g
       transform="scale(0.1)"
       id="g12"><path
         inkscape:connector-curvature="0"
         id="path14"
         style="fill:#cbf0fc;fill-opacity:1;fill-rule:nonzero;stroke:none"
         d="M 0,5952.8 V -2.78906 H 5955.57 V 5952.8 H 0" /><path
         inkscape:connector-curvature="0"
         id="path16"
         style="fill:#694b11;fill-opacity:1;fill-rule:nonzero;stroke:none"
         d="M 4300.06,4930.51 3815.08,4447.1 c 42.65,-56.45 82.47,-115.22 127.95,-169.56 l 512.26,510.59 c 38.65,38.57 89.85,108.36 18.37,179.78 -56.76,56.79 -138.14,-5.62 -173.6,-37.4" /><path
         inkscape:connector-curvature="0"
         id="path18"
         style="fill:#694b11;fill-opacity:1;fill-rule:nonzero;stroke:none"
         d="m 4468.11,4815.73 -489.73,-497.91 c -37.52,-39.91 -84.03,-110.69 -22.08,-181.63 75.32,-86.23 169.19,-8.84 204.23,22.8 l 483.67,491.72 c 38.1,38.53 93.47,113.18 28.09,188.01 -75.36,86.18 -169.23,8.74 -204.18,-22.99" /><path
         inkscape:connector-curvature="0"
         id="path20"
         style="fill:#694b11;fill-opacity:1;fill-rule:nonzero;stroke:none"
         d="M 4581.56,4627.37 4091.87,4129.5 c -37.49,-39.95 -84.05,-110.75 -22.06,-181.67 75.3,-86.27 169.19,-8.81 204.18,22.84 l 483.68,491.73 c 38.12,38.47 93.5,113.14 28.1,187.93 -75.35,86.18 -169.24,8.76 -204.21,-22.96" /><path
         inkscape:connector-curvature="0"
         id="path22"
         style="fill:#694b11;fill-opacity:1;fill-rule:nonzero;stroke:none"
         d="m 4663.85,4433.02 -377.84,-386.33 c -37.52,-39.93 -84.07,-110.76 -22.08,-181.68 75.31,-86.25 169.19,-8.78 204.18,22.87 l 371.84,380.15 c 38.11,38.47 93.48,113.18 28.09,187.96 -75.38,86.21 -169.26,8.74 -204.19,-22.97" /><path
         inkscape:connector-curvature="0"
         id="path24"
         style="fill:#694b11;fill-opacity:1;fill-rule:nonzero;stroke:none"
         d="m 4339.02,3759.13 c 63.85,63.69 194.88,197.57 194.88,197.57 l -526.48,573.13 c 0,0 -79.1,138.14 -144.84,247.51 -112.79,187.68 -263.21,214.58 -334.5,141.64 -12.17,-12.48 106.57,-127.3 144.58,-289.29 27.52,-117.27 36.32,-251.83 35.07,-286.31 -3.17,-87.35 -4.2,-185.61 -4.2,-185.61 L 0,465.34 V -2.78906 H 416.656 L 4127.01,3722.99 c 0,0 148.17,-27.51 212.01,36.14" /><path
         inkscape:connector-curvature="0"
         id="path26"
         style="fill:#f68b4f;fill-opacity:1;fill-rule:nonzero;stroke:none"
         d="m 4273.33,4615.64 c 112.66,92.09 238.65,234.22 238.65,234.22 0,0 -131.97,-87.14 -238.65,-234.22" /><path
         inkscape:connector-curvature="0"
         id="path28"
         style="fill:#f68b4f;fill-opacity:1;fill-rule:nonzero;stroke:none"
         d="m 4436.07,4450.08 c 112.66,92.1 238.68,234.18 238.68,234.18 0,0 -131.97,-87.1 -238.68,-234.18" /><path
         inkscape:connector-curvature="0"
         id="path30"
         style="fill:#f68b4f;fill-opacity:1;fill-rule:nonzero;stroke:none"
         d="m 4550.21,4261.21 c 112.67,92.08 238.67,234.19 238.67,234.19 0,0 -131.97,-87.13 -238.67,-234.19" /><path
         inkscape:connector-curvature="0"
         id="path32"
         style="fill:#79cb45;fill-opacity:1;fill-rule:nonzero;stroke:none"
         d="M 3598.42,4114.36 0,523.629 V -2.78906 H 497.008 L 4109.06,3601.61 3598.42,4114.36" /><path
         inkscape:connector-curvature="0"
         id="path34"
         style="fill:#8bd253;fill-opacity:1;fill-rule:nonzero;stroke:none"
         d="M 3594.31,4119.88 0,533.242 V 22.0625 L 3849.54,3863.46 3594.31,4119.88" /><path
         inkscape:connector-curvature="0"
         id="path36"
         style="fill:#79cb45;fill-opacity:1;fill-rule:nonzero;stroke:none"
         d="m 3340.09,3861.53 514,-515.99 59.44,57.63 -508.79,524.01 -64.65,-65.65" /><path
         inkscape:connector-curvature="0"
         id="path38"
         style="fill:#6bb937;fill-opacity:1;fill-rule:nonzero;stroke:none"
         d="m 3595.45,3605.18 258.64,-259.64 59.44,57.63 -256.72,264.38 -61.36,-62.37" /><path
         inkscape:connector-curvature="0"
         id="path40"
         style="fill:#8bd253;fill-opacity:1;fill-rule:nonzero;stroke:none"
         d="m 3581.41,4144.22 c -7.44,7.51 -19.58,7.56 -27.12,0.16 l -182.51,-180.7 c -7.52,-7.42 -7.6,-19.56 -0.13,-27.09 l 552.93,-558.73 c 7.46,-7.54 19.59,-7.59 27.09,-0.16 l 182.55,180.69 c 7.53,7.42 7.57,19.55 0.14,27.09 l -552.95,558.74" /><path
         inkscape:connector-curvature="0"
         id="path42"
         style="fill:#79cb45;fill-opacity:1;fill-rule:nonzero;stroke:none"
         d="m 3854.1,3868.64 -207.06,-210.34 277.54,-280.44 c 7.46,-7.54 19.59,-7.59 27.09,-0.16 l 182.55,180.69 c 7.53,7.42 7.57,19.55 0.14,27.09 l -280.26,283.16" /><path
         inkscape:connector-curvature="0"
         id="path44"
         style="fill:#eceeec;fill-opacity:1;fill-rule:nonzero;stroke:none"
         d="m 3552.31,4000.47 c -19.72,6.04 -40.61,-5.02 -46.68,-24.76 -6.04,-19.72 5.02,-40.62 24.74,-46.66 19.76,-6.07 40.64,4.99 46.68,24.72 6.08,19.72 -4.98,40.62 -24.74,46.7" /><path
         inkscape:connector-curvature="0"
         id="path46"
         style="fill:#c6a86b;fill-opacity:1;fill-rule:nonzero;stroke:none"
         d="m 649.195,3510.08 c -71.461,-71.42 -20.265,-141.22 18.383,-179.78 l 512.272,-510.6 c 45.48,54.36 85.28,113.12 127.93,169.56 l -484.983,483.41 c -35.449,31.81 -116.836,94.19 -173.602,37.41" /><path
         inkscape:connector-curvature="0"
         id="path48"
         style="fill:#bfa86b;fill-opacity:1;fill-rule:nonzero;stroke:none"
         d="m 654.762,3357.9 c -34.949,31.72 -128.828,109.16 -204.18,22.99 -65.391,-74.84 -10.031,-149.49 28.074,-188.01 L 962.34,2701.17 c 35.019,-31.66 128.89,-109.06 204.23,-22.81 61.94,70.91 15.42,141.71 -22.09,181.62 L 654.762,3357.9" /><path
         inkscape:connector-curvature="0"
         id="path50"
         style="fill:#c6a86b;fill-opacity:1;fill-rule:nonzero;stroke:none"
         d="m 541.289,3169.53 c -34.957,31.72 -128.848,109.14 -204.195,22.97 -65.399,-74.79 -10.004,-149.46 28.101,-187.95 l 483.688,-491.7 c 34.98,-31.66 128.871,-109.12 204.167,-22.86 61.99,70.93 15.44,141.73 -22.05,181.69 l -489.711,497.85" /><path
         inkscape:connector-curvature="0"
         id="path52"
         style="fill:#c3a86b;fill-opacity:1;fill-rule:nonzero;stroke:none"
         d="m 459.02,2975.19 c -34.954,31.7 -128.832,109.17 -204.192,22.97 -65.398,-74.79 -10.019,-149.48 28.086,-187.95 L 654.75,2430.04 c 34.992,-31.64 128.887,-109.11 204.191,-22.87 61.981,70.95 15.422,141.74 -22.086,181.68 L 459.02,2975.19" /><path
         inkscape:connector-curvature="0"
         id="path54"
         style="fill:#cba86b;fill-opacity:1;fill-rule:nonzero;stroke:none"
         d="m 1415.13,2885.53 c -1.25,34.49 7.56,169.06 35.07,286.33 38,161.98 156.76,276.81 144.59,289.28 -71.3,72.94 -221.72,46.04 -334.51,-141.63 C 1194.55,3210.13 1115.45,3072 1115.45,3072 L 588.977,2498.86 c 0,0 131.027,-133.86 194.867,-197.56 63.844,-63.66 212.011,-36.15 212.011,-36.15 L 3253.18,-2.78906 h 878.05 L 1419.33,2699.94 c 0,0 -1.03,98.26 -4.2,185.59" /><path
         inkscape:connector-curvature="0"
         id="path56"
         style="fill:#f68b4f;fill-opacity:1;fill-rule:nonzero;stroke:none"
         d="m 610.883,3392.01 c 0,0 125.992,-142.11 238.644,-234.21 -106.668,147.11 -238.644,234.21 -238.644,234.21" /><path
         inkscape:connector-curvature="0"
         id="path58"
         style="fill:#f68b4f;fill-opacity:1;fill-rule:nonzero;stroke:none"
         d="m 448.141,3226.44 c 0,0 126.004,-142.1 238.652,-234.2 -106.703,147.07 -238.652,234.2 -238.652,234.2" /><path
         inkscape:connector-curvature="0"
         id="path60"
         style="fill:#f68b4f;fill-opacity:1;fill-rule:nonzero;stroke:none"
         d="m 334,3037.57 c 0,0 125.984,-142.1 238.645,-234.2 C 465.953,2950.45 334,3037.57 334,3037.57" /><path
         inkscape:connector-curvature="0"
         id="path62"
         style="fill:#306aa9;fill-opacity:1;fill-rule:nonzero;stroke:none"
         d="M 1013.81,2143.78 3165.52,-2.78906 H 4190.18 L 1524.44,2656.53 1013.81,2143.78" /><path
         inkscape:connector-curvature="0"
         id="path64"
         style="fill:#3b76c3;fill-opacity:1;fill-rule:nonzero;stroke:none"
         d="M 1273.32,2405.62 3687.5,-2.78906 h 512.3 L 1528.55,2662.03 1273.32,2405.62" /><path
         inkscape:connector-curvature="0"
         id="path66"
         style="fill:#306aa9;fill-opacity:1;fill-rule:nonzero;stroke:none"
         d="m 1209.33,1945.33 59.45,-57.6 513.99,515.97 -64.64,65.65 -508.8,-524.02" /><path
         inkscape:connector-curvature="0"
         id="path68"
         style="fill:#26598b;fill-opacity:1;fill-rule:nonzero;stroke:none"
         d="m 1209.33,1945.33 59.45,-57.6 258.65,259.63 -61.39,62.33 -256.71,-264.36" /><path
         inkscape:connector-curvature="0"
         id="path70"
         style="fill:#3b76c3;fill-opacity:1;fill-rule:nonzero;stroke:none"
         d="m 1568.55,2686.53 c -7.53,7.41 -19.65,7.37 -27.09,-0.16 L 988.512,2127.63 c -7.434,-7.53 -7.395,-19.65 0.125,-27.08 L 1171.2,1919.88 c 7.49,-7.44 19.63,-7.38 27.08,0.14 l 552.95,558.75 c 7.46,7.5 7.38,19.65 -0.15,27.07 l -182.53,180.69" /><path
         inkscape:connector-curvature="0"
         id="path72"
         style="fill:#306aa9;fill-opacity:1;fill-rule:nonzero;stroke:none"
         d="m 988.512,2127.63 c -7.434,-7.53 -7.395,-19.65 0.125,-27.08 L 1171.2,1919.88 c 7.49,-7.44 19.63,-7.38 27.08,0.14 l 277.54,280.45 -207.06,210.34 -280.248,-283.18" /><path
         inkscape:connector-curvature="0"
         id="path74"
         style="fill:#eceeec;fill-opacity:1;fill-rule:nonzero;stroke:none"
         d="m 1570.55,2542.62 c -19.76,-6.06 -30.81,-26.97 -24.74,-46.7 6.04,-19.71 26.93,-30.79 46.69,-24.69 19.72,6.04 30.78,26.93 24.73,46.65 -6.06,19.73 -26.96,30.8 -46.68,24.74" /><path
         inkscape:connector-curvature="0"
         id="path76"
         style="fill:#f9a86b;fill-opacity:1;fill-rule:nonzero;stroke:none"
         d="m 1528.07,4946.25 c -71.47,-71.44 -20.26,-141.21 18.37,-179.79 l 512.28,-510.58 c 45.47,54.33 85.27,113.09 127.93,169.55 l -484.98,483.41 c -35.45,31.8 -116.84,94.19 -173.6,37.41" /><path
         inkscape:connector-curvature="0"
         id="path78"
         style="fill:#f9a86b;fill-opacity:1;fill-rule:nonzero;stroke:none"
         d="m 1533.62,4794.05 c -34.94,31.73 -128.82,109.17 -204.18,22.99 -65.38,-74.83 -10.01,-149.47 28.08,-188 l 483.7,-491.72 c 35.02,-31.65 128.88,-109.05 204.22,-22.8 61.94,70.93 15.42,141.71 -22.1,181.62 l -489.72,497.91" /><path
         inkscape:connector-curvature="0"
         id="path80"
         style="fill:#f9a86b;fill-opacity:1;fill-rule:nonzero;stroke:none"
         d="m 1420.17,4605.7 c -34.97,31.71 -128.86,109.14 -204.21,22.96 -65.4,-74.78 -10.01,-149.46 28.11,-187.94 L 1727.75,3949 c 34.98,-31.64 128.88,-109.1 204.16,-22.85 61.99,70.92 15.45,141.74 -22.04,181.69 l -489.7,497.86" /><path
         inkscape:connector-curvature="0"
         id="path82"
         style="fill:#f9a86b;fill-opacity:1;fill-rule:nonzero;stroke:none"
         d="m 1337.89,4411.36 c -34.95,31.69 -128.83,109.17 -204.19,22.95 -65.4,-74.78 -10.02,-149.46 28.08,-187.96 l 371.84,-380.14 c 35,-31.64 128.88,-109.12 204.18,-22.88 61.99,70.94 15.44,141.75 -22.07,181.7 l -377.84,386.33" /><path
         inkscape:connector-curvature="0"
         id="path84"
         style="fill:#f9a86b;fill-opacity:1;fill-rule:nonzero;stroke:none"
         d="M 5955.57,491.109 2298.2,4136.09 c 0,0 -1.04,98.26 -4.21,185.6 -1.23,34.5 7.56,169.06 35.09,286.35 37.99,161.96 156.75,276.8 144.58,289.26 -71.3,72.94 -221.72,46.04 -334.51,-141.63 -65.73,-109.38 -144.84,-247.52 -144.84,-247.52 l -526.46,-573.11 c 0,0 131.03,-133.88 194.86,-197.58 63.85,-63.65 212.01,-36.15 212.01,-36.15 L 5561.48,-2.78906 h 273.05 L 5955.57,101.34 v 389.769" /><path
         inkscape:connector-curvature="0"
         id="path86"
         style="fill:#f68b4f;fill-opacity:1;fill-rule:nonzero;stroke:none"
         d="m 1489.75,4828.17 c 0,0 126,-142.1 238.65,-234.2 -106.67,147.1 -238.65,234.2 -238.65,234.2" /><path
         inkscape:connector-curvature="0"
         id="path88"
         style="fill:#f68b4f;fill-opacity:1;fill-rule:nonzero;stroke:none"
         d="m 1327,4662.59 c 0,0 126.01,-142.08 238.66,-234.18 -106.7,147.08 -238.66,234.18 -238.66,234.18" /><path
         inkscape:connector-curvature="0"
         id="path90"
         style="fill:#f68b4f;fill-opacity:1;fill-rule:nonzero;stroke:none"
         d="m 1212.86,4473.73 c 0,0 126,-142.1 238.66,-234.19 -106.7,147.06 -238.66,234.19 -238.66,234.19" /><path
         inkscape:connector-curvature="0"
         id="path92"
         style="fill:#df7b18;fill-opacity:1;fill-rule:nonzero;stroke:none"
         d="M 5955.57,549 2403.32,4092.69 1892.68,3579.94 5483.99,-2.78906 h 471.58 V 549" /><path
         inkscape:connector-curvature="0"
         id="path94"
         style="fill:#ef8a16;fill-opacity:1;fill-rule:nonzero;stroke:none"
         d="M 2407.43,4098.2 2152.18,3841.78 5955.57,47.5 V 558.59 L 2407.43,4098.2" /><path
         inkscape:connector-curvature="0"
         id="path96"
         style="fill:#df7b18;fill-opacity:1;fill-rule:nonzero;stroke:none"
         d="m 2088.2,3381.49 59.45,-57.6 514,515.97 -64.66,65.65 -508.79,-524.02" /><path
         inkscape:connector-curvature="0"
         id="path98"
         style="fill:#c0671c;fill-opacity:1;fill-rule:nonzero;stroke:none"
         d="m 2088.2,3381.49 59.45,-57.6 258.64,259.62 -61.38,62.35 -256.71,-264.37" /><path
         inkscape:connector-curvature="0"
         id="path100"
         style="fill:#ef8a16;fill-opacity:1;fill-rule:nonzero;stroke:none"
         d="m 2447.42,4122.69 c -7.52,7.41 -19.64,7.38 -27.08,-0.13 l -552.95,-558.75 c -7.44,-7.53 -7.41,-19.66 0.12,-27.08 l 182.56,-180.68 c 7.48,-7.46 19.63,-7.39 27.06,0.12 l 552.96,558.77 c 7.46,7.5 7.39,19.65 -0.14,27.07 l -182.53,180.68" /><path
         inkscape:connector-curvature="0"
         id="path102"
         style="fill:#df7b18;fill-opacity:1;fill-rule:nonzero;stroke:none"
         d="m 1867.39,3563.81 c -7.44,-7.53 -7.41,-19.66 0.12,-27.08 l 182.56,-180.68 c 7.48,-7.46 19.63,-7.39 27.06,0.12 l 277.55,280.46 -207.04,210.35 -280.25,-283.17" /><path
         inkscape:connector-curvature="0"
         id="path104"
         style="fill:#eceeec;fill-opacity:1;fill-rule:nonzero;stroke:none"
         d="m 2449.42,3978.8 c -19.76,-6.07 -30.81,-26.99 -24.75,-46.71 6.05,-19.72 26.95,-30.78 46.7,-24.71 19.71,6.04 30.78,26.93 24.73,46.67 -6.05,19.73 -26.95,30.79 -46.68,24.75" /><path
         inkscape:connector-curvature="0"
         id="path106"
         style="fill:#c786ac;fill-opacity:1;fill-rule:nonzero;stroke:none"
         d="m 5113.44,3554.31 -484.97,-483.42 c 42.66,-56.45 82.46,-115.2 127.94,-169.55 l 512.26,510.58 c 38.65,38.59 89.86,108.36 18.39,179.79 -56.78,56.78 -138.14,-5.61 -173.62,-37.4" /><path
         inkscape:connector-curvature="0"
         id="path108"
         style="fill:#c786ac;fill-opacity:1;fill-rule:nonzero;stroke:none"
         d="m 5281.49,3439.52 -489.72,-497.91 c -37.51,-39.92 -84.03,-110.7 -22.09,-181.62 75.34,-86.25 169.2,-8.83 204.23,22.8 l 483.68,491.72 c 38.1,38.51 93.47,113.18 28.08,188.01 -75.35,86.17 -169.22,8.72 -204.18,-23" /><path
         inkscape:connector-curvature="0"
         id="path110"
         style="fill:#c786ac;fill-opacity:1;fill-rule:nonzero;stroke:none"
         d="m 5394.95,3251.16 -489.71,-497.85 c -37.48,-39.96 -84.02,-110.77 -22.03,-181.69 75.28,-86.26 169.17,-8.79 204.15,22.85 l 483.68,491.72 c 38.14,38.47 93.52,113.14 28.11,187.94 -75.34,86.17 -169.23,8.75 -204.2,-22.97" /><path
         inkscape:connector-curvature="0"
         id="path112"
         style="fill:#c786ac;fill-opacity:1;fill-rule:nonzero;stroke:none"
         d="m 5477.24,3056.81 -377.85,-386.32 c -37.51,-39.96 -84.07,-110.75 -22.08,-181.69 75.31,-86.23 169.2,-8.77 204.18,22.87 l 371.85,380.15 c 38.11,38.48 93.49,113.18 28.08,187.97 -75.36,86.2 -169.24,8.73 -204.18,-22.98" /><path
         inkscape:connector-curvature="0"
         id="path114"
         style="fill:#c787ad;fill-opacity:1;fill-rule:nonzero;stroke:none"
         d="m 5152.42,2382.92 c 63.82,63.71 194.86,197.58 194.86,197.58 l -526.47,573.13 c 0,0 -79.1,138.12 -144.84,247.51 -112.79,187.68 -263.2,214.56 -334.51,141.62 -12.17,-12.46 106.58,-127.28 144.58,-289.26 27.53,-117.28 36.33,-251.86 35.07,-286.33 -3.17,-87.34 -4.19,-185.61 -4.19,-185.61 L 1724.18,-2.78906 h 876.38 L 4940.39,2346.78 c 0,0 148.17,-27.52 212.03,36.14" /><path
         inkscape:connector-curvature="0"
         id="path116"
         style="fill:#f68b4f;fill-opacity:1;fill-rule:nonzero;stroke:none"
         d="m 5086.71,3239.44 c 112.67,92.09 238.66,234.2 238.66,234.2 0,0 -131.97,-87.12 -238.66,-234.2" /><path
         inkscape:connector-curvature="0"
         id="path118"
         style="fill:#f68b4f;fill-opacity:1;fill-rule:nonzero;stroke:none"
         d="m 5249.46,3073.87 c 112.66,92.09 238.67,234.19 238.67,234.19 0,0 -131.97,-87.12 -238.67,-234.19" /><path
         inkscape:connector-curvature="0"
         id="path120"
         style="fill:#f68b4f;fill-opacity:1;fill-rule:nonzero;stroke:none"
         d="m 5363.61,2885 c 112.66,92.09 238.64,234.19 238.64,234.19 0,0 -131.96,-87.11 -238.64,-234.19" /><path
         inkscape:connector-curvature="0"
         id="path122"
         style="fill:#e72a34;fill-opacity:1;fill-rule:nonzero;stroke:none"
         d="M 4411.81,2738.15 1665,-2.78906 H 2689.53 L 4922.44,2225.4 4411.81,2738.15" /><path
         inkscape:connector-curvature="0"
         id="path124"
         style="fill:#ef363c;fill-opacity:1;fill-rule:nonzero;stroke:none"
         d="M 4407.7,2743.66 1655.37,-2.78906 H 2167.6 L 4662.95,2487.24 4407.7,2743.66" /><path
         inkscape:connector-curvature="0"
         id="path126"
         style="fill:#e72a34;fill-opacity:1;fill-rule:nonzero;stroke:none"
         d="m 4153.48,2485.32 514,-515.97 59.44,57.61 -508.8,524.01 -64.64,-65.65" /><path
         inkscape:connector-curvature="0"
         id="path128"
         style="fill:#d3212a;fill-opacity:1;fill-rule:nonzero;stroke:none"
         d="m 4408.82,2228.99 258.66,-259.64 59.44,57.61 -256.71,264.36 -61.39,-62.33" /><path
         inkscape:connector-curvature="0"
         id="path130"
         style="fill:#ef363c;fill-opacity:1;fill-rule:nonzero;stroke:none"
         d="m 4394.79,2768.01 c -7.44,7.51 -19.57,7.55 -27.1,0.16 l -182.52,-180.7 c -7.53,-7.42 -7.61,-19.57 -0.14,-27.08 l 552.94,-558.74 c 7.45,-7.53 19.59,-7.59 27.09,-0.15 l 182.56,180.67 c 7.53,7.43 7.56,19.56 0.11,27.09 l -552.94,558.75" /><path
         inkscape:connector-curvature="0"
         id="path132"
         style="fill:#e72a34;fill-opacity:1;fill-rule:nonzero;stroke:none"
         d="m 4667.49,2492.43 -207.06,-210.34 277.54,-280.44 c 7.45,-7.53 19.59,-7.59 27.09,-0.15 l 182.56,180.67 c 7.53,7.43 7.56,19.56 0.11,27.09 l -280.24,283.17" /><path
         inkscape:connector-curvature="0"
         id="path134"
         style="fill:#eceeec;fill-opacity:1;fill-rule:nonzero;stroke:none"
         d="m 4365.7,2624.26 c -19.71,6.04 -40.62,-5.03 -46.67,-24.76 -6.05,-19.72 5.01,-40.61 24.72,-46.65 19.75,-6.09 40.65,4.99 46.69,24.71 6.07,19.72 -4.97,40.61 -24.74,46.7" /></g></g></svg>